<!DOCTYPE svg PUBLIC "-//W3C//DTD SVG 20010904//EN" "http://www.w3.org/TR/2001/REC-SVG-20010904/DTD/svg10.dtd">
<svg version="1.0" xmlns="http://www.w3.org/2000/svg" width="200px" height="200px" viewBox="0 0 2000 2000" preserveAspectRatio="xMidYMid meet">
<g id="layer101" fill="#3b3e37" stroke="none">
 <path d="M627 1544 c-109 -26 -212 -89 -318 -194 -152 -151 -209 -277 -209 -462 0 -183 53 -311 180 -439 198 -199 493 -245 750 -117 69 35 104 61 186 143 165 163 221 297 212 503 -5 101 -4 103 16 97 46 -14 274 -17 361 -6 49 7 92 14 94 17 19 18 -126 239 -210 320 -77 74 -127 106 -208 134 -112 38 -304 19 -344 -33 l-18 -23 -47 22 c-81 39 -162 54 -278 53 -60 0 -135 -7 -167 -15z m335 -103 c86 -27 112 -48 103 -82 l-7 -26 -66 34 c-73 37 -179 63 -257 63 -44 0 -142 -17 -200 -34 -11 -4 5 6 35 21 114 56 260 65 392 24z m-93 -56 c111 -29 201 -87 201 -128 0 -40 65 -160 131 -242 l64 -80 -1 -66 c-1 -142 -90 -314 -195 -377 -162 -98 -359 -101 -534 -9 -83 44 -182 146 -223 230 -77 155 -77 300 -3 452 33 67 50 88 98 124 62 46 142 86 202 100 58 14 201 12 260 -4z m609 -140 c37 -19 64 -35 60 -35 -18 0 -138 53 -138 61 0 13 5 12 78 -26z m-1304 -150 c-10 -31 -15 -90 -16 -155 0 -86 5 -119 26 -185 60 -186 214 -341 406 -406 87 -29 249 -37 340 -16 36 9 66 14 68 12 2 -2 -34 -16 -80 -30 -65 -21 -104 -27 -178 -27 -177 -1 -315 55 -440 181 -86 88 -132 166 -160 277 -31 120 -24 223 21 347 26 70 34 71 13 2z m1141 -282 c-9 -32 -28 -78 -41 -103 -14 -25 -22 -36 -19 -25 21 68 35 135 35 172 0 28 6 49 18 61 16 16 17 16 20 -16 2 -18 -4 -58 -13 -89z"/>
 <path d="M325 965 c-20 -19 -25 -34 -25 -77 0 -65 18 -94 68 -107 41 -12 98 -1 96 17 -3 40 -4 41 -32 33 -55 -16 -90 18 -76 73 7 28 38 41 79 34 18 -4 26 0 30 13 10 31 -3 39 -61 39 -45 0 -59 -4 -79 -25z"/>
 <path d="M496 974 c-35 -34 -11 -84 40 -84 21 0 33 -4 29 -10 -3 -5 -19 -10 -36 -10 -22 0 -29 -5 -29 -20 0 -28 61 -38 95 -16 23 15 25 23 25 86 l0 70 -54 0 c-36 0 -60 -5 -70 -16z m74 -40 c0 -17 -22 -14 -28 4 -2 7 3 12 12 12 9 0 16 -7 16 -16z"/>
 <path d="M652 913 l3 -77 33 -7 c48 -10 74 -1 70 25 -2 15 -9 20 -25 18 -22 -3 -23 0 -23 57 l0 61 -30 0 -31 0 3 -77z"/>
 <path d="M792 974 c-18 -12 -22 -25 -22 -64 0 -41 4 -52 27 -70 51 -40 123 -3 123 61 0 28 -2 29 -46 29 -29 0 -43 4 -39 11 4 5 21 9 38 7 27 -2 33 1 35 20 3 20 -1 22 -45 22 -28 0 -58 -7 -71 -16z m68 -94 c0 -5 -6 -10 -14 -10 -8 0 -18 5 -21 10 -3 6 3 10 14 10 12 0 21 -4 21 -10z"/>
 <path d="M980 945 c0 -18 -5 -25 -20 -25 -13 0 -20 -7 -20 -20 0 -13 7 -20 20 -20 16 0 20 -7 20 -30 0 -25 4 -30 25 -30 21 0 25 5 25 30 0 25 4 30 25 30 18 0 25 5 25 20 0 15 -7 20 -25 20 -20 0 -25 5 -25 25 0 20 -5 25 -25 25 -20 0 -25 -5 -25 -25z"/>
 <path d="M1150 945 c0 -20 -5 -25 -25 -25 -18 0 -25 -5 -25 -20 0 -15 7 -20 25 -20 21 0 25 -5 25 -30 0 -25 4 -30 25 -30 21 0 25 5 25 30 0 25 4 30 25 30 18 0 25 5 25 20 0 15 -7 20 -25 20 -20 0 -25 5 -25 25 0 20 -5 25 -25 25 -20 0 -25 -5 -25 -25z"/>
 </g>
<g id="layer102" fill="#4c5b3a" stroke="none">
 <path d="M1205 1545 c-32 -9 -58 -24 -73 -42 -77 -96 -89 -209 -34 -328 37 -79 94 -159 160 -224 53 -53 54 -52 98 65 27 70 31 74 54 68 107 -26 274 -32 407 -13 43 6 80 13 82 15 8 8 -35 90 -90 174 -61 91 -158 192 -226 234 -102 63 -257 84 -378 51z m273 -300 c37 -19 64 -35 60 -35 -18 0 -138 53 -138 61 0 13 5 12 78 -26z"/>
 </g>
<g id="layer103" fill="#709a38" stroke="none">
 <path d="M1209 1545 c-63 -17 -64 -17 -106 -93 -34 -61 -38 -74 -37 -138 1 -82 36 -170 107 -264 55 -73 127 -144 138 -133 10 10 69 157 69 172 0 6 16 4 43 -5 58 -22 270 -30 382 -15 49 7 92 14 94 17 8 8 -34 90 -90 174 -61 91 -158 192 -226 234 -101 62 -257 84 -374 51z m-9 -133 c0 -7 -4 -10 -10 -7 -5 3 -10 16 -10 28 0 18 2 19 10 7 5 -8 10 -21 10 -28z m278 -167 c37 -19 64 -35 60 -35 -18 0 -138 53 -138 61 0 13 5 12 78 -26z"/>
 </g>
<g id="layer104" fill="#95dd31" stroke="none">
 <path d="M1206 1545 c-59 -17 -65 -23 -108 -105 -45 -88 -44 -169 2 -268 48 -102 186 -272 209 -257 5 2 23 45 41 95 27 74 36 90 49 84 44 -19 146 -34 238 -34 92 0 252 16 262 26 8 8 -35 90 -90 174 -75 114 -180 212 -278 258 -70 34 -84 37 -176 39 -63 1 -118 -3 -149 -12z m-6 -134 c0 -11 -3 -11 -14 -1 -8 6 -12 18 -9 27 5 12 7 12 14 1 5 -7 9 -19 9 -27z m278 -166 c37 -19 64 -35 60 -35 -18 0 -138 53 -138 61 0 13 5 12 78 -26z"/>
 </g>

</svg>